<svg xmlns="http://www.w3.org/2000/svg" xmlns:xlink="http://www.w3.org/1999/xlink" width="500" zoomAndPan="magnify" viewBox="0 0 375 374.999991" height="500" preserveAspectRatio="xMidYMid meet" version="1.0"><defs><g/></defs><g fill="#ff3131" fill-opacity="1"><g transform="translate(24.114429, 203.999987)"><g><path d="M 3.59375 0 L 3.59375 -51.59375 L 14.21875 -51.59375 L 14.21875 -27.546875 L 14.34375 -27.546875 C 17.101562 -30.304688 20.039062 -31.6875 23.15625 -31.6875 C 24.675781 -31.6875 26.1875 -31.484375 27.6875 -31.078125 C 29.1875 -30.679688 30.625 -30.0625 32 -29.21875 C 33.382812 -28.375 34.503906 -27.179688 35.359375 -25.640625 C 36.222656 -24.109375 36.65625 -22.320312 36.65625 -20.28125 L 36.65625 0 L 26.046875 0 L 26.046875 -17.40625 C 26.046875 -19 25.535156 -20.394531 24.515625 -21.59375 C 23.492188 -22.800781 22.160156 -23.40625 20.515625 -23.40625 C 18.921875 -23.40625 17.472656 -22.785156 16.171875 -21.546875 C 14.867188 -20.304688 14.21875 -18.925781 14.21875 -17.40625 L 14.21875 0 Z M 3.59375 0 "/></g></g></g><g fill="#ff3131" fill-opacity="1"><g transform="translate(58.134384, 203.999987)"><g><path d="M 13.625 -30.78125 L 13.625 -16.140625 C 13.625 -13.097656 14.082031 -10.9375 15 -9.65625 C 15.914062 -8.375 17.472656 -7.734375 19.671875 -7.734375 C 21.878906 -7.734375 23.441406 -8.375 24.359375 -9.65625 C 25.273438 -10.9375 25.734375 -13.097656 25.734375 -16.140625 L 25.734375 -30.78125 L 36.359375 -30.78125 L 36.359375 -13.5625 C 36.359375 -8.4375 35.023438 -4.742188 32.359375 -2.484375 C 29.703125 -0.222656 25.472656 0.90625 19.671875 0.90625 C 13.878906 0.90625 9.648438 -0.222656 6.984375 -2.484375 C 4.328125 -4.742188 3 -8.4375 3 -13.5625 L 3 -30.78125 Z M 13.625 -30.78125 "/></g></g></g><g fill="#ff3131" fill-opacity="1"><g transform="translate(91.854344, 203.999987)"><g><path d="M 3.59375 0 L 3.59375 -30.78125 L 14.21875 -30.78125 L 14.21875 -27.546875 L 14.34375 -27.546875 C 17.101562 -30.304688 20.039062 -31.6875 23.15625 -31.6875 C 24.675781 -31.6875 26.1875 -31.484375 27.6875 -31.078125 C 29.1875 -30.679688 30.625 -30.0625 32 -29.21875 C 33.382812 -28.375 34.503906 -27.179688 35.359375 -25.640625 C 36.222656 -24.109375 36.65625 -22.320312 36.65625 -20.28125 L 36.65625 0 L 26.046875 0 L 26.046875 -17.40625 C 26.046875 -19 25.535156 -20.394531 24.515625 -21.59375 C 23.492188 -22.800781 22.160156 -23.40625 20.515625 -23.40625 C 18.921875 -23.40625 17.472656 -22.785156 16.171875 -21.546875 C 14.867188 -20.304688 14.21875 -18.925781 14.21875 -17.40625 L 14.21875 0 Z M 3.59375 0 "/></g></g></g><g fill="#ff3131" fill-opacity="1"><g transform="translate(125.874302, 203.999987)"><g><path d="M 2.21875 7.5625 L 10.921875 3.296875 C 12.515625 5.941406 15.296875 7.265625 19.265625 7.265625 C 21.097656 7.265625 22.804688 6.671875 24.390625 5.484375 C 25.972656 4.304688 26.765625 2.5 26.765625 0.0625 L 26.765625 -2.21875 C 24.878906 -0.132812 21.519531 0.90625 16.6875 0.90625 C 12.238281 0.90625 8.570312 -0.660156 5.6875 -3.796875 C 2.8125 -6.941406 1.375 -10.796875 1.375 -15.359375 C 1.375 -19.921875 2.8125 -23.78125 5.6875 -26.9375 C 8.570312 -30.101562 12.238281 -31.6875 16.6875 -31.6875 C 20.644531 -31.6875 23.941406 -30.460938 26.578125 -28.015625 L 26.765625 -28.015625 L 26.765625 -30.78125 L 37.375 -30.78125 L 37.375 0.84375 C 37.375 5.84375 35.710938 9.703125 32.390625 12.421875 C 29.078125 15.140625 24.703125 16.5 19.265625 16.5 C 10.460938 16.5 4.78125 13.519531 2.21875 7.5625 Z M 14.71875 -20.578125 C 13.34375 -19.222656 12.65625 -17.484375 12.65625 -15.359375 C 12.65625 -13.242188 13.316406 -11.515625 14.640625 -10.171875 C 15.960938 -8.828125 17.703125 -8.15625 19.859375 -8.15625 C 21.941406 -8.15625 23.648438 -8.832031 24.984375 -10.1875 C 26.328125 -11.550781 27 -13.273438 27 -15.359375 C 27 -17.484375 26.304688 -19.222656 24.921875 -20.578125 C 23.546875 -21.941406 21.859375 -22.625 19.859375 -22.625 C 17.816406 -22.625 16.101562 -21.941406 14.71875 -20.578125 Z M 14.71875 -20.578125 "/></g></g></g><g fill="#ff3131" fill-opacity="1"><g transform="translate(161.214261, 203.999987)"><g><path d="M 3.59375 0 L 3.59375 -30.78125 L 14.21875 -30.78125 L 14.21875 -27.546875 L 14.34375 -27.546875 C 17.101562 -30.304688 20.039062 -31.6875 23.15625 -31.6875 C 24.675781 -31.6875 26.1875 -31.484375 27.6875 -31.078125 C 29.1875 -30.679688 30.625 -30.0625 32 -29.21875 C 33.382812 -28.375 34.503906 -27.179688 35.359375 -25.640625 C 36.222656 -24.109375 36.65625 -22.320312 36.65625 -20.28125 L 36.65625 0 L 26.046875 0 L 26.046875 -17.40625 C 26.046875 -19 25.535156 -20.394531 24.515625 -21.59375 C 23.492188 -22.800781 22.160156 -23.40625 20.515625 -23.40625 C 18.921875 -23.40625 17.472656 -22.785156 16.171875 -21.546875 C 14.867188 -20.304688 14.21875 -18.925781 14.21875 -17.40625 L 14.21875 0 Z M 3.59375 0 "/></g></g></g><g fill="#ff3131" fill-opacity="1"><g transform="translate(195.234214, 203.999987)"><g><path d="M 2.21875 7.5625 L 10.921875 3.296875 C 12.515625 5.941406 15.296875 7.265625 19.265625 7.265625 C 21.097656 7.265625 22.804688 6.671875 24.390625 5.484375 C 25.972656 4.304688 26.765625 2.5 26.765625 0.0625 L 26.765625 -2.21875 C 24.878906 -0.132812 21.519531 0.90625 16.6875 0.90625 C 12.238281 0.90625 8.570312 -0.660156 5.6875 -3.796875 C 2.8125 -6.941406 1.375 -10.796875 1.375 -15.359375 C 1.375 -19.921875 2.8125 -23.78125 5.6875 -26.9375 C 8.570312 -30.101562 12.238281 -31.6875 16.6875 -31.6875 C 20.644531 -31.6875 23.941406 -30.460938 26.578125 -28.015625 L 26.765625 -28.015625 L 26.765625 -30.78125 L 37.375 -30.78125 L 37.375 0.84375 C 37.375 5.84375 35.710938 9.703125 32.390625 12.421875 C 29.078125 15.140625 24.703125 16.5 19.265625 16.5 C 10.460938 16.5 4.78125 13.519531 2.21875 7.5625 Z M 14.71875 -20.578125 C 13.34375 -19.222656 12.65625 -17.484375 12.65625 -15.359375 C 12.65625 -13.242188 13.316406 -11.515625 14.640625 -10.171875 C 15.960938 -8.828125 17.703125 -8.15625 19.859375 -8.15625 C 21.941406 -8.15625 23.648438 -8.832031 24.984375 -10.1875 C 26.328125 -11.550781 27 -13.273438 27 -15.359375 C 27 -17.484375 26.304688 -19.222656 24.921875 -20.578125 C 23.546875 -21.941406 21.859375 -22.625 19.859375 -22.625 C 17.816406 -22.625 16.101562 -21.941406 14.71875 -20.578125 Z M 14.71875 -20.578125 "/></g></g></g><g fill="#ff3131" fill-opacity="1"><g transform="translate(230.574185, 203.999987)"><g><path d="M 13.625 -30.78125 L 13.625 -16.140625 C 13.625 -13.097656 14.082031 -10.9375 15 -9.65625 C 15.914062 -8.375 17.472656 -7.734375 19.671875 -7.734375 C 21.878906 -7.734375 23.441406 -8.375 24.359375 -9.65625 C 25.273438 -10.9375 25.734375 -13.097656 25.734375 -16.140625 L 25.734375 -30.78125 L 36.359375 -30.78125 L 36.359375 -13.5625 C 36.359375 -8.4375 35.023438 -4.742188 32.359375 -2.484375 C 29.703125 -0.222656 25.472656 0.90625 19.671875 0.90625 C 13.878906 0.90625 9.648438 -0.222656 6.984375 -2.484375 C 4.328125 -4.742188 3 -8.4375 3 -13.5625 L 3 -30.78125 Z M 13.625 -30.78125 "/></g></g></g><g fill="#ff3131" fill-opacity="1"><g transform="translate(264.294154, 203.999987)"><g><path d="M 26.9375 -30.78125 L 39.1875 -30.78125 L 15 15.59375 L 2.765625 15.59375 L 13.375 -4.796875 L -1.203125 -30.78125 L 11.046875 -30.78125 L 19.625 -15 Z M 26.9375 -30.78125 "/></g></g></g><g fill="#ff3131" fill-opacity="1"><g transform="translate(296.634126, 203.999987)"><g><path d="M 34.734375 -13.921875 L 12.421875 -13.921875 C 12.421875 -11.765625 13.117188 -10.164062 14.515625 -9.125 C 15.921875 -8.082031 17.441406 -7.5625 19.078125 -7.5625 C 20.796875 -7.5625 22.15625 -7.789062 23.15625 -8.25 C 24.15625 -8.707031 25.296875 -9.617188 26.578125 -10.984375 L 34.265625 -7.140625 C 31.054688 -1.773438 25.734375 0.90625 18.296875 0.90625 C 13.660156 0.90625 9.679688 -0.679688 6.359375 -3.859375 C 3.035156 -7.046875 1.375 -10.878906 1.375 -15.359375 C 1.375 -19.835938 3.035156 -23.675781 6.359375 -26.875 C 9.679688 -30.082031 13.660156 -31.6875 18.296875 -31.6875 C 23.179688 -31.6875 27.148438 -30.273438 30.203125 -27.453125 C 33.265625 -24.628906 34.796875 -20.597656 34.796875 -15.359375 C 34.796875 -14.640625 34.773438 -14.160156 34.734375 -13.921875 Z M 12.71875 -19.796875 L 24.421875 -19.796875 C 24.179688 -21.398438 23.550781 -22.628906 22.53125 -23.484375 C 21.507812 -24.347656 20.195312 -24.78125 18.59375 -24.78125 C 16.832031 -24.78125 15.429688 -24.316406 14.390625 -23.390625 C 13.359375 -22.472656 12.800781 -21.273438 12.71875 -19.796875 Z M 12.71875 -19.796875 "/></g></g></g><g fill="#ff3131" fill-opacity="1"><g transform="translate(327.174102, 203.999987)"><g><path d="M 5.40625 -30.78125 L 5.40625 -42.234375 L 16.015625 -42.234375 L 16.015625 -30.78125 L 22.5 -30.78125 L 22.5 -22.6875 L 16.015625 -22.6875 L 16.015625 -12.90625 C 16.015625 -10.0625 16.816406 -8.640625 18.421875 -8.640625 C 18.816406 -8.640625 19.234375 -8.71875 19.671875 -8.875 C 20.117188 -9.039062 20.460938 -9.203125 20.703125 -9.359375 L 21.0625 -9.59375 L 23.703125 -1.015625 C 21.421875 0.265625 18.820312 0.90625 15.90625 0.90625 C 13.90625 0.90625 12.179688 0.554688 10.734375 -0.140625 C 9.296875 -0.847656 8.207031 -1.789062 7.46875 -2.96875 C 6.726562 -4.144531 6.195312 -5.382812 5.875 -6.6875 C 5.5625 -7.988281 5.40625 -9.378906 5.40625 -10.859375 L 5.40625 -22.6875 L 0.953125 -22.6875 L 0.953125 -30.78125 Z M 5.40625 -30.78125 "/></g></g></g></svg>