<svg xmlns="http://www.w3.org/2000/svg" xmlns:xlink="http://www.w3.org/1999/xlink" width="500" zoomAndPan="magnify" viewBox="0 0 375 374.999991" height="500" preserveAspectRatio="xMidYMid meet" version="1.0"><defs><g/></defs><g fill="#ff3131" fill-opacity="1"><g transform="translate(-1.680241, 210.600015)"><g><path d="M 4.140625 0 L 4.140625 -59.34375 L 16.359375 -59.34375 L 16.359375 -31.671875 L 16.484375 -31.671875 C 19.660156 -34.847656 23.046875 -36.4375 26.640625 -36.4375 C 28.378906 -36.4375 30.113281 -36.203125 31.84375 -35.734375 C 33.570312 -35.273438 35.226562 -34.5625 36.8125 -33.59375 C 38.394531 -32.632812 39.679688 -31.269531 40.671875 -29.5 C 41.660156 -27.726562 42.15625 -25.671875 42.15625 -23.328125 L 42.15625 0 L 29.953125 0 L 29.953125 -20.015625 C 29.953125 -21.847656 29.363281 -23.453125 28.1875 -24.828125 C 27.007812 -26.210938 25.476562 -26.90625 23.59375 -26.90625 C 21.757812 -26.90625 20.09375 -26.191406 18.59375 -24.765625 C 17.101562 -23.335938 16.359375 -21.753906 16.359375 -20.015625 L 16.359375 0 Z M 4.140625 0 "/></g></g></g><g fill="#ff3131" fill-opacity="1"><g transform="translate(37.434981, 210.600015)"><g><path d="M 15.65625 -35.390625 L 15.65625 -18.5625 C 15.65625 -15.0625 16.1875 -12.578125 17.25 -11.109375 C 18.3125 -9.640625 20.101562 -8.90625 22.625 -8.90625 C 25.15625 -8.90625 26.945312 -9.640625 28 -11.109375 C 29.0625 -12.578125 29.59375 -15.0625 29.59375 -18.5625 L 29.59375 -35.390625 L 41.8125 -35.390625 L 41.8125 -15.59375 C 41.8125 -9.707031 40.28125 -5.460938 37.21875 -2.859375 C 34.164062 -0.265625 29.300781 1.03125 22.625 1.03125 C 15.957031 1.03125 11.09375 -0.265625 8.03125 -2.859375 C 4.976562 -5.460938 3.453125 -9.707031 3.453125 -15.59375 L 3.453125 -35.390625 Z M 15.65625 -35.390625 "/></g></g></g><g fill="#ff3131" fill-opacity="1"><g transform="translate(76.205267, 210.600015)"><g><path d="M 4.140625 0 L 4.140625 -35.390625 L 16.359375 -35.390625 L 16.359375 -31.671875 L 16.484375 -31.671875 C 19.660156 -34.847656 23.046875 -36.4375 26.640625 -36.4375 C 28.378906 -36.4375 30.113281 -36.203125 31.84375 -35.734375 C 33.570312 -35.273438 35.226562 -34.5625 36.8125 -33.59375 C 38.394531 -32.632812 39.679688 -31.269531 40.671875 -29.5 C 41.660156 -27.726562 42.15625 -25.671875 42.15625 -23.328125 L 42.15625 0 L 29.953125 0 L 29.953125 -20.015625 C 29.953125 -21.847656 29.363281 -23.453125 28.1875 -24.828125 C 27.007812 -26.210938 25.476562 -26.90625 23.59375 -26.90625 C 21.757812 -26.90625 20.09375 -26.191406 18.59375 -24.765625 C 17.101562 -23.335938 16.359375 -21.753906 16.359375 -20.015625 L 16.359375 0 Z M 4.140625 0 "/></g></g></g><g fill="#ff3131" fill-opacity="1"><g transform="translate(115.320484, 210.600015)"><g><path d="M 2.546875 8.6875 L 12.5625 3.796875 C 14.394531 6.828125 17.59375 8.34375 22.15625 8.34375 C 24.269531 8.34375 26.234375 7.664062 28.046875 6.3125 C 29.867188 4.957031 30.78125 2.875 30.78125 0.0625 L 30.78125 -2.546875 C 28.613281 -0.160156 24.75 1.03125 19.1875 1.03125 C 14.070312 1.03125 9.859375 -0.769531 6.546875 -4.375 C 3.242188 -7.988281 1.59375 -12.414062 1.59375 -17.65625 C 1.59375 -22.90625 3.242188 -27.347656 6.546875 -30.984375 C 9.859375 -34.617188 14.070312 -36.4375 19.1875 -36.4375 C 23.738281 -36.4375 27.53125 -35.03125 30.5625 -32.21875 L 30.78125 -32.21875 L 30.78125 -35.390625 L 42.984375 -35.390625 L 42.984375 0.96875 C 42.984375 6.71875 41.070312 11.15625 37.25 14.28125 C 33.4375 17.40625 28.40625 18.96875 22.15625 18.96875 C 12.03125 18.96875 5.492188 15.539062 2.546875 8.6875 Z M 16.9375 -23.671875 C 15.351562 -22.109375 14.5625 -20.101562 14.5625 -17.65625 C 14.5625 -15.21875 15.316406 -13.226562 16.828125 -11.6875 C 18.347656 -10.15625 20.351562 -9.390625 22.84375 -9.390625 C 25.226562 -9.390625 27.191406 -10.171875 28.734375 -11.734375 C 30.273438 -13.296875 31.046875 -15.269531 31.046875 -17.65625 C 31.046875 -20.101562 30.25 -22.109375 28.65625 -23.671875 C 27.070312 -25.234375 25.132812 -26.015625 22.84375 -26.015625 C 20.488281 -26.015625 18.519531 -25.234375 16.9375 -23.671875 Z M 16.9375 -23.671875 "/></g></g></g><g fill="#ff3131" fill-opacity="1"><g transform="translate(155.953439, 210.600015)"><g><path d="M 4.140625 0 L 4.140625 -35.390625 L 16.359375 -35.390625 L 16.359375 -31.671875 L 16.484375 -31.671875 C 19.660156 -34.847656 23.046875 -36.4375 26.640625 -36.4375 C 28.378906 -36.4375 30.113281 -36.203125 31.84375 -35.734375 C 33.570312 -35.273438 35.226562 -34.5625 36.8125 -33.59375 C 38.394531 -32.632812 39.679688 -31.269531 40.671875 -29.5 C 41.660156 -27.726562 42.15625 -25.671875 42.15625 -23.328125 L 42.15625 0 L 29.953125 0 L 29.953125 -20.015625 C 29.953125 -21.847656 29.363281 -23.453125 28.1875 -24.828125 C 27.007812 -26.210938 25.476562 -26.90625 23.59375 -26.90625 C 21.757812 -26.90625 20.09375 -26.191406 18.59375 -24.765625 C 17.101562 -23.335938 16.359375 -21.753906 16.359375 -20.015625 L 16.359375 0 Z M 4.140625 0 "/></g></g></g><g fill="#ff3131" fill-opacity="1"><g transform="translate(195.068655, 210.600015)"><g><path d="M 2.546875 8.6875 L 12.5625 3.796875 C 14.394531 6.828125 17.59375 8.34375 22.15625 8.34375 C 24.269531 8.34375 26.234375 7.664062 28.046875 6.3125 C 29.867188 4.957031 30.78125 2.875 30.78125 0.0625 L 30.78125 -2.546875 C 28.613281 -0.160156 24.75 1.03125 19.1875 1.03125 C 14.070312 1.03125 9.859375 -0.769531 6.546875 -4.375 C 3.242188 -7.988281 1.59375 -12.414062 1.59375 -17.65625 C 1.59375 -22.90625 3.242188 -27.347656 6.546875 -30.984375 C 9.859375 -34.617188 14.070312 -36.4375 19.1875 -36.4375 C 23.738281 -36.4375 27.53125 -35.03125 30.5625 -32.21875 L 30.78125 -32.21875 L 30.78125 -35.390625 L 42.984375 -35.390625 L 42.984375 0.96875 C 42.984375 6.71875 41.070312 11.15625 37.25 14.28125 C 33.4375 17.40625 28.40625 18.96875 22.15625 18.96875 C 12.03125 18.96875 5.492188 15.539062 2.546875 8.6875 Z M 16.9375 -23.671875 C 15.351562 -22.109375 14.5625 -20.101562 14.5625 -17.65625 C 14.5625 -15.21875 15.316406 -13.226562 16.828125 -11.6875 C 18.347656 -10.15625 20.351562 -9.390625 22.84375 -9.390625 C 25.226562 -9.390625 27.191406 -10.171875 28.734375 -11.734375 C 30.273438 -13.296875 31.046875 -15.269531 31.046875 -17.65625 C 31.046875 -20.101562 30.25 -22.109375 28.65625 -23.671875 C 27.070312 -25.234375 25.132812 -26.015625 22.84375 -26.015625 C 20.488281 -26.015625 18.519531 -25.234375 16.9375 -23.671875 Z M 16.9375 -23.671875 "/></g></g></g><g fill="#ff3131" fill-opacity="1"><g transform="translate(235.70161, 210.600015)"><g><path d="M 15.65625 -35.390625 L 15.65625 -18.5625 C 15.65625 -15.0625 16.1875 -12.578125 17.25 -11.109375 C 18.3125 -9.640625 20.101562 -8.90625 22.625 -8.90625 C 25.15625 -8.90625 26.945312 -9.640625 28 -11.109375 C 29.0625 -12.578125 29.59375 -15.0625 29.59375 -18.5625 L 29.59375 -35.390625 L 41.8125 -35.390625 L 41.8125 -15.59375 C 41.8125 -9.707031 40.28125 -5.460938 37.21875 -2.859375 C 34.164062 -0.265625 29.300781 1.03125 22.625 1.03125 C 15.957031 1.03125 11.09375 -0.265625 8.03125 -2.859375 C 4.976562 -5.460938 3.453125 -9.707031 3.453125 -15.59375 L 3.453125 -35.390625 Z M 15.65625 -35.390625 "/></g></g></g><g fill="#ff3131" fill-opacity="1"><g transform="translate(274.471902, 210.600015)"><g><path d="M 30.984375 -35.390625 L 45.0625 -35.390625 L 17.25 17.9375 L 3.171875 17.9375 L 15.390625 -5.515625 L -1.375 -35.390625 L 12.703125 -35.390625 L 22.5625 -17.25 Z M 30.984375 -35.390625 "/></g></g></g><g fill="#ff3131" fill-opacity="1"><g transform="translate(311.655447, 210.600015)"><g><path d="M 39.953125 -16.015625 L 14.28125 -16.015625 C 14.28125 -13.523438 15.082031 -11.679688 16.6875 -10.484375 C 18.300781 -9.285156 20.050781 -8.6875 21.9375 -8.6875 C 23.914062 -8.6875 25.476562 -8.953125 26.625 -9.484375 C 27.78125 -10.015625 29.09375 -11.0625 30.5625 -12.625 L 39.40625 -8.21875 C 35.71875 -2.050781 29.597656 1.03125 21.046875 1.03125 C 15.710938 1.03125 11.132812 -0.796875 7.3125 -4.453125 C 3.5 -8.109375 1.59375 -12.507812 1.59375 -17.65625 C 1.59375 -22.8125 3.5 -27.226562 7.3125 -30.90625 C 11.132812 -34.59375 15.710938 -36.4375 21.046875 -36.4375 C 26.660156 -36.4375 31.222656 -34.8125 34.734375 -31.5625 C 38.253906 -28.320312 40.015625 -23.6875 40.015625 -17.65625 C 40.015625 -16.832031 39.992188 -16.285156 39.953125 -16.015625 Z M 14.625 -22.765625 L 28.078125 -22.765625 C 27.804688 -24.609375 27.082031 -26.023438 25.90625 -27.015625 C 24.738281 -28.003906 23.234375 -28.5 21.390625 -28.5 C 19.367188 -28.5 17.757812 -27.96875 16.5625 -26.90625 C 15.363281 -25.851562 14.71875 -24.472656 14.625 -22.765625 Z M 14.625 -22.765625 "/></g></g></g><g fill="#ff3131" fill-opacity="1"><g transform="translate(346.769352, 210.600015)"><g><path d="M 6.203125 -35.390625 L 6.203125 -48.578125 L 18.421875 -48.578125 L 18.421875 -35.390625 L 25.875 -35.390625 L 25.875 -26.078125 L 18.421875 -26.078125 L 18.421875 -14.828125 C 18.421875 -11.566406 19.34375 -9.9375 21.1875 -9.9375 C 21.644531 -9.9375 22.125 -10.023438 22.625 -10.203125 C 23.132812 -10.390625 23.53125 -10.578125 23.8125 -10.765625 L 24.21875 -11.046875 L 27.25 -1.171875 C 24.632812 0.296875 21.644531 1.03125 18.28125 1.03125 C 15.976562 1.03125 14 0.628906 12.34375 -0.171875 C 10.6875 -0.972656 9.429688 -2.050781 8.578125 -3.40625 C 7.734375 -4.769531 7.125 -6.195312 6.75 -7.6875 C 6.382812 -9.1875 6.203125 -10.785156 6.203125 -12.484375 L 6.203125 -26.078125 L 1.109375 -26.078125 L 1.109375 -35.390625 Z M 6.203125 -35.390625 "/></g></g></g></svg>