<?xml version="1.0" standalone="no"?>
<!DOCTYPE svg PUBLIC "-//W3C//DTD SVG 20010904//EN"
 "http://www.w3.org/TR/2001/REC-SVG-20010904/DTD/svg10.dtd">
<svg version="1.0" xmlns="http://www.w3.org/2000/svg"
 width="500.000000pt" height="500.000000pt" viewBox="0 0 500.000000 500.000000"
 preserveAspectRatio="xMidYMid meet">
<metadata>
Created by potrace 1.14, written by Peter Selinger 2001-2017
</metadata>
<g transform="translate(0.000000,500.000000) scale(0.100000,-0.100000)"
fill="#000000" stroke="none">
<path d="M1914 2586 c-125 -39 -193 -176 -150 -301 46 -136 173 -194 324 -150
l52 16 0 104 c0 117 2 115 -78 99 -29 -6 -31 -9 -34 -58 -3 -57 -18 -67 -67
-46 -78 32 -82 183 -6 218 31 14 75 15 109 2 24 -9 27 -6 46 37 11 25 20 49
20 54 0 12 -98 39 -139 38 -20 0 -54 -6 -77 -13z"/>
<path d="M2890 2591 c-110 -34 -175 -119 -174 -231 1 -95 49 -176 128 -217 46
-24 134 -28 199 -9 l57 17 0 104 c0 116 4 111 -72 99 l-38 -7 0 -53 c0 -53 -1
-54 -29 -54 -61 0 -108 68 -98 143 10 77 84 117 162 87 25 -9 27 -7 46 36 11
25 18 51 15 59 -9 26 -140 43 -196 26z"/>
<path d="M190 2360 l0 -230 75 0 75 0 0 90 0 90 70 0 70 0 0 -90 0 -90 75 0
75 0 0 230 0 230 -75 0 -75 0 0 -90 0 -90 -70 0 -70 0 0 90 0 90 -75 0 -75 0
0 -230z"/>
<path d="M720 2428 c0 -150 2 -166 23 -203 80 -141 328 -138 404 4 21 41 23
56 23 203 l0 158 -75 0 -75 0 0 -149 c0 -135 -2 -151 -21 -175 -26 -33 -79
-36 -109 -6 -18 18 -20 33 -20 175 l0 155 -75 0 -75 0 0 -162z"/>
<path d="M1250 2360 l0 -230 60 0 59 0 3 116 3 117 89 -117 88 -116 69 0 69 0
0 230 0 230 -60 0 -59 0 -3 -122 -3 -122 -90 122 -90 121 -67 1 -68 0 0 -230z"/>
<path d="M2210 2360 l0 -230 60 0 59 0 3 118 3 117 90 -117 90 -118 67 0 68 0
0 230 0 230 -60 0 -59 0 -3 -121 -3 -120 -90 120 -89 121 -68 0 -68 0 0 -230z"/>
<path d="M3170 2438 c0 -174 10 -210 73 -265 83 -73 228 -71 316 4 56 48 65
83 66 258 l0 150 -75 0 -75 0 -5 -158 c-4 -142 -7 -160 -24 -173 -28 -20 -69
-17 -97 5 -23 18 -24 25 -27 175 l-3 156 -75 0 -74 0 0 -152z"/>
<path d="M3670 2581 c0 -6 27 -78 60 -161 53 -133 60 -158 60 -220 l0 -70 75
0 75 0 0 66 c0 58 7 83 65 221 36 85 65 159 65 164 0 5 -31 9 -70 9 l-69 0
-32 -102 -32 -103 -32 100 -31 100 -67 3 c-41 2 -67 -1 -67 -7z"/>
<path d="M4120 2360 l0 -230 160 0 160 0 0 50 0 50 -80 0 -80 0 0 45 0 45 70
0 70 0 0 40 0 40 -70 0 -70 0 0 45 0 45 80 0 80 0 0 50 0 50 -160 0 -160 0 0
-230z"/>
<path d="M4490 2540 l0 -50 45 0 45 0 0 -180 0 -180 80 0 80 0 0 180 0 180 45
0 45 0 0 50 0 50 -170 0 -170 0 0 -50z"/>
</g>
</svg>
